<?xml version="1.0" encoding="UTF-8"?><svg xmlns="http://www.w3.org/2000/svg" width="24px" height="24px" fill="none" stroke-width="1.4" viewBox="0 0 24 24" color="#000000"><path stroke="#000000" stroke-width="1.4" d="M14 20.4v-5.8a.6.6 0 0 1 .6-.6h5.8a.6.6 0 0 1 .6.6v5.8a.6.6 0 0 1-.6.6h-5.8a.6.6 0 0 1-.6-.6ZM3 20.4v-5.8a.6.6 0 0 1 .6-.6h5.8a.6.6 0 0 1 .6.6v5.8a.6.6 0 0 1-.6.6H3.6a.6.6 0 0 1-.6-.6ZM14 9.4V3.6a.6.6 0 0 1 .6-.6h5.8a.6.6 0 0 1 .6.6v5.8a.6.6 0 0 1-.6.6h-5.8a.6.6 0 0 1-.6-.6ZM3 9.4V3.6a.6.6 0 0 1 .6-.6h5.8a.6.6 0 0 1 .6.6v5.8a.6.6 0 0 1-.6.6H3.6a.6.6 0 0 1-.6-.6Z"></path></svg>