<svg width="24" height="24" viewBox="0 0 24 24" fill="none" xmlns="http://www.w3.org/2000/svg">
<path d="M22.8 13.5H1.2C0.881741 13.5 0.576516 13.3419 0.351472 13.0606C0.126428 12.7794 0 12.3978 0 12C0 11.6022 0.126428 11.2206 0.351472 10.9393C0.576516 10.658 0.881741 10.5 1.2 10.5H22.8C23.1182 10.5 23.4235 10.658 23.6485 10.9393C23.8735 11.2206 24 11.6022 24 12C24 12.3978 23.8735 12.7794 23.6485 13.0606C23.4235 13.3419 23.1182 13.5 22.8 13.5ZM22.8 3H1.2C0.881741 3 0.576516 2.84196 0.351472 2.56066C0.126428 2.27935 0 1.89783 0 1.5C0 1.10217 0.126428 0.720645 0.351472 0.439335C0.576516 0.15804 0.881741 0 1.2 0H22.8C23.1182 0 23.4235 0.15804 23.6485 0.439335C23.8735 0.720645 24 1.10217 24 1.5C24 1.89783 23.8735 2.27935 23.6485 2.56066C23.4235 2.84196 23.1182 3 22.8 3ZM22.8 24H1.2C0.881741 24 0.576516 23.8419 0.351472 23.5606C0.126428 23.2794 0 22.8978 0 22.5C0 22.1022 0.126428 21.7206 0.351472 21.4394C0.576516 21.1581 0.881741 21 1.2 21H22.8C23.1182 21 23.4235 21.1581 23.6485 21.4394C23.8735 21.7206 24 22.1022 24 22.5C24 22.8978 23.8735 23.2794 23.6485 23.5606C23.4235 23.8419 23.1182 24 22.8 24Z" fill="#FFFFFF"/>
</svg>
