<svg width="24" height="24" viewBox="0 0 24 24" fill="none" xmlns="http://www.w3.org/2000/svg">
<g clip-path="url(#clip0_1_2119)">
<path d="M23.633 10.226L12.633 1.226C12.4544 1.07994 12.2307 1.00015 12 1.00015C11.7692 1.00015 11.5456 1.07994 11.367 1.226L4.99998 6.435V4.5C4.99998 4.36739 4.9473 4.24022 4.85353 4.14645C4.75976 4.05268 4.63259 4 4.49998 4H3.49998C3.36737 4 3.24019 4.05268 3.14642 4.14645C3.05266 4.24022 2.99998 4.36739 2.99998 4.5V8.071L0.366977 10.226C0.166303 10.3953 0.04027 10.6368 0.0160923 10.8982C-0.00808539 11.1597 0.0715317 11.4201 0.237753 11.6234C0.403973 11.8266 0.643461 11.9563 0.904506 11.9845C1.16555 12.0127 1.42721 11.9371 1.63298 11.774L2.99998 10.656V22C2.99998 22.2652 3.10533 22.5196 3.29287 22.7071C3.48041 22.8946 3.73476 23 3.99998 23H9.99998V18.5C9.99998 18.3674 10.0527 18.2402 10.1464 18.1464C10.2402 18.0527 10.3674 18 10.5 18H13.5C13.6326 18 13.7598 18.0527 13.8535 18.1464C13.9473 18.2402 14 18.3674 14 18.5V23H20C20.2652 23 20.5195 22.8946 20.7071 22.7071C20.8946 22.5196 21 22.2652 21 22V10.656L22.367 11.774C22.5697 11.9451 22.8321 12.0286 23.0965 12.0062C23.3608 11.9838 23.6054 11.8573 23.7765 11.6545C23.9475 11.4517 24.0311 11.1893 24.0086 10.925C23.9862 10.6607 23.8597 10.4161 23.657 10.245L23.633 10.226ZM13.5 14H10.5C10.3674 14 10.2402 13.9473 10.1464 13.8536C10.0527 13.7598 9.99998 13.6326 9.99998 13.5V10.5C9.99998 10.3674 10.0527 10.2402 10.1464 10.1464C10.2402 10.0527 10.3674 10 10.5 10H13.5C13.6326 10 13.7598 10.0527 13.8535 10.1464C13.9473 10.2402 14 10.3674 14 10.5V13.5C14 13.6326 13.9473 13.7598 13.8535 13.8536C13.7598 13.9473 13.6326 14 13.5 14Z" fill="#FFF"/>
</g>
<defs>
<clipPath id="clip0_1_2119">
<rect width="24" height="24" fill="white"/>
</clipPath>
</defs>
</svg>
