<svg width="85" height="85" viewBox="0 0 85 85" fill="none" xmlns="http://www.w3.org/2000/svg">
<rect width="85" height="84.5" rx="42.25" fill="#1C1A1B"/>
<path d="M25.5 54H24V55.5H25.5V54ZM25.5 15L26.6523 14.0397C26.248 13.5546 25.5832 13.3746 24.9894 13.5896C24.3956 13.8046 24 14.3685 24 15H25.5ZM28 18H29.5C29.5 17.6491 29.377 17.3093 29.1523 17.0397L28 18ZM28 54V55.5H29.5V54H28ZM27 54V15H24V54H27ZM24.3477 15.9603L26.8477 18.9603L29.1523 17.0397L26.6523 14.0397L24.3477 15.9603ZM26.5 18V54H29.5V18H26.5ZM28 52.5H25.5V55.5H28V52.5ZM17.9146 39.1889L39.6202 22.4923L37.7911 20.1144L16.0854 36.8111L17.9146 39.1889ZM43.8399 22.4558L69.1061 41.2046L70.8939 38.7954L45.6276 20.0466L43.8399 22.4558ZM39.6202 22.4923C40.8605 21.5382 42.5833 21.5233 43.8399 22.4558L45.6276 20.0466C43.294 18.3149 40.0944 18.3426 37.7911 20.1144L39.6202 22.4923Z" fill="white"/>
<rect x="32" y="32.5" width="9" height="7" fill="white"/>
<rect x="47" y="35.5" width="4" height="4" fill="white"/>
<rect x="52" y="35.5" width="4" height="4" fill="white"/>
<rect x="47" y="40.5" width="4" height="4" fill="white"/>
<rect x="52" y="40.5" width="4" height="4" fill="white"/>
<path d="M16.89 59.55V66.5H15.75V59.55H16.89ZM25.0567 60.9C25.4901 60.9 25.8767 60.99 26.2167 61.17C26.5634 61.35 26.8334 61.6167 27.0267 61.97C27.2267 62.3233 27.3267 62.75 27.3267 63.25V66.5H26.1967V63.42C26.1967 62.9267 26.0734 62.55 25.8267 62.29C25.5801 62.0233 25.2434 61.89 24.8167 61.89C24.3901 61.89 24.0501 62.0233 23.7967 62.29C23.5501 62.55 23.4267 62.9267 23.4267 63.42V66.5H22.2967V63.42C22.2967 62.9267 22.1734 62.55 21.9267 62.29C21.6801 62.0233 21.3434 61.89 20.9167 61.89C20.4901 61.89 20.1501 62.0233 19.8967 62.29C19.6501 62.55 19.5267 62.9267 19.5267 63.42V66.5H18.3867V60.99H19.5267V61.62C19.7134 61.3933 19.9501 61.2167 20.2367 61.09C20.5234 60.9633 20.8301 60.9 21.1567 60.9C21.5967 60.9 21.9901 60.9933 22.3367 61.18C22.6834 61.3667 22.9501 61.6367 23.1367 61.99C23.3034 61.6567 23.5634 61.3933 23.9167 61.2C24.2701 61 24.6501 60.9 25.0567 60.9ZM35.4473 60.9C35.8807 60.9 36.2673 60.99 36.6073 61.17C36.954 61.35 37.224 61.6167 37.4173 61.97C37.6173 62.3233 37.7173 62.75 37.7173 63.25V66.5H36.5873V63.42C36.5873 62.9267 36.464 62.55 36.2173 62.29C35.9707 62.0233 35.634 61.89 35.2073 61.89C34.7807 61.89 34.4407 62.0233 34.1873 62.29C33.9407 62.55 33.8173 62.9267 33.8173 63.42V66.5H32.6873V63.42C32.6873 62.9267 32.564 62.55 32.3173 62.29C32.0707 62.0233 31.734 61.89 31.3073 61.89C30.8807 61.89 30.5407 62.0233 30.2873 62.29C30.0407 62.55 29.9173 62.9267 29.9173 63.42V66.5H28.7773V60.99H29.9173V61.62C30.104 61.3933 30.3407 61.2167 30.6273 61.09C30.914 60.9633 31.2207 60.9 31.5473 60.9C31.9873 60.9 32.3807 60.9933 32.7273 61.18C33.074 61.3667 33.3407 61.6367 33.5273 61.99C33.694 61.6567 33.954 61.3933 34.3073 61.2C34.6607 61 35.0407 60.9 35.4473 60.9ZM41.558 66.59C41.038 66.59 40.568 66.4733 40.148 66.24C39.728 66 39.398 65.6667 39.158 65.24C38.918 64.8067 38.798 64.3067 38.798 63.74C38.798 63.18 38.9213 62.6833 39.168 62.25C39.4146 61.8167 39.7513 61.4833 40.178 61.25C40.6046 61.0167 41.0813 60.9 41.608 60.9C42.1346 60.9 42.6113 61.0167 43.038 61.25C43.4646 61.4833 43.8013 61.8167 44.048 62.25C44.2946 62.6833 44.418 63.18 44.418 63.74C44.418 64.3 44.2913 64.7967 44.038 65.23C43.7846 65.6633 43.438 66 42.998 66.24C42.5646 66.4733 42.0846 66.59 41.558 66.59ZM41.558 65.6C41.8513 65.6 42.1246 65.53 42.378 65.39C42.638 65.25 42.848 65.04 43.008 64.76C43.168 64.48 43.248 64.14 43.248 63.74C43.248 63.34 43.1713 63.0033 43.018 62.73C42.8646 62.45 42.6613 62.24 42.408 62.1C42.1546 61.96 41.8813 61.89 41.588 61.89C41.2946 61.89 41.0213 61.96 40.768 62.1C40.5213 62.24 40.3246 62.45 40.178 62.73C40.0313 63.0033 39.958 63.34 39.958 63.74C39.958 64.3333 40.108 64.7933 40.408 65.12C40.7146 65.44 41.098 65.6 41.558 65.6ZM45.7249 59.55H46.9649L45.9149 61.93H45.1149L45.7249 59.55Z" fill="white"/>
<path d="M53.61 61.62C53.61 61.9733 53.5267 62.3067 53.36 62.62C53.1933 62.9333 52.9267 63.19 52.56 63.39C52.1933 63.5833 51.7233 63.68 51.15 63.68H49.89V66.5H48.75V59.55H51.15C51.6833 59.55 52.1333 59.6433 52.5 59.83C52.8733 60.01 53.15 60.2567 53.33 60.57C53.5167 60.8833 53.61 61.2333 53.61 61.62ZM51.15 62.75C51.5833 62.75 51.9067 62.6533 52.12 62.46C52.3333 62.26 52.44 61.98 52.44 61.62C52.44 60.86 52.01 60.48 51.15 60.48H49.89V62.75H51.15ZM55.8373 61.79C56.0039 61.51 56.2239 61.2933 56.4973 61.14C56.7773 60.98 57.1073 60.9 57.4873 60.9V62.08H57.1973C56.7506 62.08 56.4106 62.1933 56.1773 62.42C55.9506 62.6467 55.8373 63.04 55.8373 63.6V66.5H54.6973V60.99H55.8373V61.79ZM60.9252 66.59C60.4052 66.59 59.9352 66.4733 59.5152 66.24C59.0952 66 58.7652 65.6667 58.5252 65.24C58.2852 64.8067 58.1652 64.3067 58.1652 63.74C58.1652 63.18 58.2885 62.6833 58.5352 62.25C58.7818 61.8167 59.1185 61.4833 59.5452 61.25C59.9718 61.0167 60.4485 60.9 60.9752 60.9C61.5018 60.9 61.9785 61.0167 62.4052 61.25C62.8318 61.4833 63.1685 61.8167 63.4152 62.25C63.6618 62.6833 63.7852 63.18 63.7852 63.74C63.7852 64.3 63.6585 64.7967 63.4052 65.23C63.1518 65.6633 62.8052 66 62.3652 66.24C61.9318 66.4733 61.4518 66.59 60.9252 66.59ZM60.9252 65.6C61.2185 65.6 61.4918 65.53 61.7452 65.39C62.0052 65.25 62.2152 65.04 62.3752 64.76C62.5352 64.48 62.6152 64.14 62.6152 63.74C62.6152 63.34 62.5385 63.0033 62.3852 62.73C62.2318 62.45 62.0285 62.24 61.7752 62.1C61.5218 61.96 61.2485 61.89 60.9552 61.89C60.6618 61.89 60.3885 61.96 60.1352 62.1C59.8885 62.24 59.6918 62.45 59.5452 62.73C59.3985 63.0033 59.3252 63.34 59.3252 63.74C59.3252 64.3333 59.4752 64.7933 59.7752 65.12C60.0818 65.44 60.4652 65.6 60.9252 65.6ZM66.9121 66.59C66.4788 66.59 66.0888 66.5133 65.7421 66.36C65.4021 66.2 65.1321 65.9867 64.9321 65.72C64.7321 65.4467 64.6254 65.1433 64.6121 64.81H65.7921C65.8121 65.0433 65.9221 65.24 66.1221 65.4C66.3288 65.5533 66.5854 65.63 66.8921 65.63C67.2121 65.63 67.4588 65.57 67.6321 65.45C67.8121 65.3233 67.9021 65.1633 67.9021 64.97C67.9021 64.7633 67.8021 64.61 67.6021 64.51C67.4088 64.41 67.0988 64.3 66.6721 64.18C66.2588 64.0667 65.9221 63.9567 65.6621 63.85C65.4021 63.7433 65.1754 63.58 64.9821 63.36C64.7954 63.14 64.7021 62.85 64.7021 62.49C64.7021 62.1967 64.7888 61.93 64.9621 61.69C65.1354 61.4433 65.3821 61.25 65.7021 61.11C66.0288 60.97 66.4021 60.9 66.8221 60.9C67.4488 60.9 67.9521 61.06 68.3321 61.38C68.7188 61.6933 68.9254 62.1233 68.9521 62.67H67.8121C67.7921 62.4233 67.6921 62.2267 67.5121 62.08C67.3321 61.9333 67.0888 61.86 66.7821 61.86C66.4821 61.86 66.2521 61.9167 66.0921 62.03C65.9321 62.1433 65.8521 62.2933 65.8521 62.48C65.8521 62.6267 65.9054 62.75 66.0121 62.85C66.1188 62.95 66.2488 63.03 66.4021 63.09C66.5554 63.1433 66.7821 63.2133 67.0821 63.3C67.4821 63.4067 67.8088 63.5167 68.0621 63.63C68.3221 63.7367 68.5454 63.8967 68.7321 64.11C68.9188 64.3233 69.0154 64.6067 69.0221 64.96C69.0221 65.2733 68.9354 65.5533 68.7621 65.8C68.5888 66.0467 68.3421 66.24 68.0221 66.38C67.7088 66.52 67.3388 66.59 66.9121 66.59Z" fill="#B380FF"/>
</svg>
